<svg id="Layer_1" data-name="Layer 1" xmlns="http://www.w3.org/2000/svg" viewBox="0 0 488.1 453.25"><defs><style>.cls-1{fill:#f5f5f5;}.cls-2{fill:#e0e0e0;}.cls-3{fill:#b16668;}.cls-4{fill:#37474f;}.cls-5{fill:#263238;}.cls-12,.cls-13,.cls-6{fill:#5f0085;}.cls-7{fill:#680099;}.cls-10,.cls-12,.cls-7{opacity:0.1;}.cls-10,.cls-12,.cls-13,.cls-19,.cls-7{isolation:isolate;}.cls-8{fill:#9a4a4d;}.cls-9{fill:#5b0284;}.cls-11{fill:#5c29c4;}.cls-13{opacity:0.05;}.cls-14{fill:#ffa8a7;}.cls-15{fill:#f28f8f;}.cls-16{fill:#f0f0f0;}.cls-17{fill:#e6e6e6;}.cls-18{opacity:0.5;}.cls-19{font-size:33.88px;fill:#fff;font-family:CenturyGothic-Bold, Century Gothic;font-weight:700;}.cls-20{fill:#e7b932;}.cls-21{fill:#5986c3;}.cls-22{fill:#aa2b3d;}.cls-23{fill:#78b78e;}</style></defs><title>Welcome-Last Design</title><g id="Layer_1-2" data-name="Layer 1"><g id="freepik--Floor--inject-1--inject-2"><path id="freepik--floor--inject-1--inject-2-2" data-name="freepik--floor--inject-1--inject-2" class="cls-1" d="M93.9,440c85.7,39,224.6,39,310.3,0s85.7-102.3,0-141.3-224.6-39-310.3,0S8.2,401,93.9,440Z" transform="translate(-7 -16)"/></g><g id="freepik--Shadows--inject-1--inject-2"><ellipse id="freepik--Shadow--inject-1--inject-2" class="cls-2" cx="390.3" cy="346.5" rx="51.1" ry="24.4"/><ellipse id="freepik--shadow--inject-1--inject-2-2" data-name="freepik--shadow--inject-1--inject-2" class="cls-2" cx="90.8" cy="359.2" rx="51.1" ry="24.4"/></g><g id="freepik--character-2--inject-1--inject-2"><rect class="cls-3" x="60.4" y="338" width="9.4" height="16"/><polygon class="cls-3" points="98.7 341.9 108.1 342.3 108.6 325.3 98.7 325 98.7 341.9"/><path class="cls-4" d="M70.2,240.3c0,8.9.5,60.8.5,60.8-.2,2.6-2.7,7.1-2.9,16.4-.3,13.4-.8,44.6-.8,44.6a12.22,12.22,0,0,0,10.4.2S87.3,318,89,304.7c1.5-11.6,4-43.2,4-43.2l7.2,39.3A53.33,53.33,0,0,0,99,315.7c.4,6.1,6.1,37,6.1,37a12.45,12.45,0,0,0,10.8.8s.6-48.4.7-54c.1-6.4-2.7-61.8-2.7-61.8Z" transform="translate(-7 -16)"/><path class="cls-5" d="M76.8,365.5v-1.3c.5,0,.8.5,1,1.7a20,20,0,0,0,.5,2.6,45,45,0,0,0,1.6,4.8c1.3,3.3,2.4,4.5,5.5,8.3,1,1.1,2,2.2,2.9,3.4.6,1,.8,3.8-.2,4.5-3.5,2.4-8.9,2.4-12.7,1.3a7.64,7.64,0,0,1-5.5-6.2c-.1-.9-.1-1.8-.2-2.6a11.85,11.85,0,0,0-2.3-5.4,14.92,14.92,0,0,1-1.8-3c-.8-1.9-.2-4.1.3-6,.4-1.7.9-3.5,1.5-3.3v1a7.84,7.84,0,0,0,4.7,1.6C73.5,366.8,76.8,366.5,76.8,365.5Z" transform="translate(-7 -16)"/><path class="cls-5" d="M115.2,355.4c.5,0,.9.7,2,1.9a21.53,21.53,0,0,0,5.5,4c3.5,1.8,10.3,4.5,13.4,5.9,1.9.9,1.8,3.2-.1,4.5s-6.8,2.3-12.6,1c-3.2-.7-7.3-3.6-9.8-3.5s-7.4.1-9.4-1.2-1.2-4.1-.6-6.6,1.3-6.8,2.2-6.6v.9c1.1,1.7,6.9,2.4,9.4,1.1v-1.4Z" transform="translate(-7 -16)"/><path class="cls-5" d="M93,261.5a34.61,34.61,0,0,0,13-7.5s-2.5,4.7-10,9.1L99.6,298Z" transform="translate(-7 -16)"/><path class="cls-3" d="M107.9,218.9c-6.1-20.4-4.9-37.6-6.1-42.9l15.7,21.9a195.56,195.56,0,0,0,3.2,21.5c1.8,7.8,4.3,17.5,7.2,23.5a4.25,4.25,0,0,0,2.6,2.3c3,1.2,4.3,2.7,6.7,4.5,1.9,1.4,3.3,1.6,3.2,2.1a2.68,2.68,0,0,1-3.1,1.8,19.85,19.85,0,0,1-4.1-1.4,22.23,22.23,0,0,0,5,6c4.5,4,5.2,6.7-2.4,8.1-4.7.9-9-1.4-14.4-11.2a94,94,0,0,1-5.3-11.1C112.5,234,109.7,225.1,107.9,218.9Z" transform="translate(-7 -16)"/><path class="cls-6" d="M100.6,170.9c4.9.9,9.7,2,12.7,6.7s7.3,26.8,7.3,26.8-6.3,4.4-13.5,4.2Z" transform="translate(-7 -16)"/><path class="cls-7" d="M100.6,170.9c4.9.9,9.7,2,12.7,6.7s7.3,26.8,7.3,26.8-6.3,4.4-13.5,4.2Z" transform="translate(-7 -16)"/><path class="cls-8" d="M67,179.1c-3.3,2.3-20.5,41.3-21.2,44-.9,3.7-.5,7.8,1.3,9.2s5.8-.6,7.9-2.6c4-4,18-33.1,18-33.1Z" transform="translate(-7 -16)"/><path class="cls-9" d="M84.2,171c-8,1.9-18,5.1-21.6,12.4s-9,19.2-9,19.2a32.2,32.2,0,0,0,13.2,7.8l4-7-.6,37c6.4,4.7,30.1,7.3,43.7-2.7,0,0-1.7-44.4-1.7-51.3s-3.8-15.2-14.4-15.8Z" transform="translate(-7 -16)"/><path class="cls-10" d="M70.8,203.4s4-6.9,4.8-8.6l-5,17Z" transform="translate(-7 -16)"/><circle class="cls-5" cx="92.3" cy="124.2" r="12.9"/><path class="cls-5" d="M77.1,149.3s2.1,9.8,2.9,11.4a4.91,4.91,0,0,0,2.6,2.1l-.1-6.9Z" transform="translate(-7 -16)"/><path class="cls-5" d="M79.7,135.3a4.86,4.86,0,0,0-4,1.4c-1.7,1.8-.8,7.3,1.4,12.6l3.9.4Z" transform="translate(-7 -16)"/><path class="cls-3" d="M82.2,149.8c-.8.5-1.9-1.1-2.9-2.1s-4.2-2.4-5.7.9,1.4,7.9,3.9,8.7c4.3,1.4,5-1.4,5-1.4l.3,16h0c5.3,6.9,20.2,6.3,14-.9v-4.7a28.22,28.22,0,0,0,5.8.3c3.2-.5,5.2-3,6.1-6.4,1.5-5.5,2.1-10,.8-20.8-1.4-11.9-15.2-12-22.7-7.3S82.2,149.8,82.2,149.8Z" transform="translate(-7 -16)"/><path class="cls-5" d="M82.2,151.1c-.4,0-1.9-2.5-2.9-3.4-1.4-1.2.4-12.4.4-12.4a5.5,5.5,0,0,1,.9-6c1.9-2.1,4.5-4.6,12.9-3.6,6,.7,12.6,2.6,17.9,0a9.08,9.08,0,0,1-3.1,9.6s-1.9,1.2-7,1.9a72.64,72.64,0,0,1-14-.3c-1.5-.2-1.8,1.2-2.6,5.1C84.1,145.3,83.5,151.1,82.2,151.1Z" transform="translate(-7 -16)"/><path class="cls-5" d="M79.7,136.1l-4.8-2.6a2.55,2.55,0,0,1,3.5-1.2h.1A3,3,0,0,1,79.7,136.1Z" transform="translate(-7 -16)"/><path class="cls-8" d="M96.7,166.3s-7.1-1.4-9.5-2.7a8,8,0,0,1-3.4-3.4,12.26,12.26,0,0,0,1.9,4c1.8,2.3,11,4,11,4Z" transform="translate(-7 -16)"/><path class="cls-5" d="M95,148a1.4,1.4,0,1,1-1.4-1.5A1.52,1.52,0,0,1,95,148Z" transform="translate(-7 -16)"/><path class="cls-5" d="M93.5,142.7l-3,1.7a1.79,1.79,0,0,1,.7-2.4,1.62,1.62,0,0,1,2.3.7Z" transform="translate(-7 -16)"/><path class="cls-8" d="M96.1,157.8l3.2,1.2a1.65,1.65,0,0,1-2.1,1.1h-.1A1.77,1.77,0,0,1,96.1,157.8Z" transform="translate(-7 -16)"/><path class="cls-5" d="M107.6,143.8l-2.8-2.1a1.54,1.54,0,0,1,2.3-.4.1.1,0,0,1,.1.1A1.66,1.66,0,0,1,107.6,143.8Z" transform="translate(-7 -16)"/><path class="cls-5" d="M106.8,147.6a1.45,1.45,0,0,1-2.9-.1,1.43,1.43,0,0,1,1.4-1.4,1.47,1.47,0,0,1,1.5,1.5Z" transform="translate(-7 -16)"/><polygon class="cls-8" points="92.6 130.3 93 138.8 97.5 137.3 92.6 130.3"/><path class="cls-4" d="M61.9,246.9a.47.47,0,0,1-.5-.5V89.1a.5.5,0,0,1,1,0V246.4A.54.54,0,0,1,61.9,246.9Z" transform="translate(-7 -16)"/><path class="cls-11" d="M65.7,102.8h0c0-1.6-3.3-6-4-6s-3.6,4.3-3.6,6h0a2.09,2.09,0,0,0,1.1,1.6,5.74,5.74,0,0,0,5.4,0,2.09,2.09,0,0,0,1.1-1.6Z" transform="translate(-7 -16)"/><path class="cls-12" d="M65.7,102.8h0c0-1.6-3.3-6-4-6s-3.6,4.3-3.6,6h0a2.09,2.09,0,0,0,1.1,1.6,5.74,5.74,0,0,0,5.4,0,2.09,2.09,0,0,0,1.1-1.6Z" transform="translate(-7 -16)"/><path class="cls-6" d="M84,67.9c0,12.3-9.7,27.8-22.3,30.8C49,95.1,39.5,80.2,39.5,67.9s7.9-23.8,22.3-23.8S84,55.6,84,67.9Z" transform="translate(-7 -16)"/><path class="cls-13" d="M40.3,61.1a25.83,25.83,0,0,0-.8,6.8c0,12.3,9.6,27.2,22.3,30.8,10.5-2.4,18.9-13.6,21.5-24.4h0S80,86.1,65.4,87.1,38.9,71.3,40.3,61.1Z" transform="translate(-7 -16)"/><path class="cls-3" d="M47.7,232.5c-2.7-.8-5.4-8.7-5.2-13.8s7.1-27.2,8-31.4c1.1-4.7,1-8.2,2-10.7,1.4-3.6,6-5.6,6-5.6s6-2.9,8.2-3.3,3,1,2.8,2.1-1,4-1.2,5.6a13,13,0,0,1-1.7,5.7c-1.1,1.8-5.7,6.1-5.9,8.6s-1.5,15.5-2.3,25c-.6,7.8-1.4,11-3.1,13.1S49.7,233.1,47.7,232.5Z" transform="translate(-7 -16)"/></g><g id="freepik--character-1--inject-1--inject-2"><rect class="cls-14" x="406.6" y="329" width="9.5" height="16.3"/><polygon class="cls-14" points="383.1 328.2 373.6 328.5 373.2 311.3 383.1 311 383.1 328.2"/><path class="cls-6" d="M420,224.1c0,9.1,1.4,63.5,1.4,63.5.2,2.6,2.7,7.3,2.9,16.6.3,13.6-.9,48.9-.9,48.9a12.66,12.66,0,0,1-10.6.2s-8.4-48.6-10.1-62.1c-1.5-11.8-4-43.8-4-43.8l-5.1,38.5a54.45,54.45,0,0,1,1.2,15.1c-.5,6.2-4.1,37.8-4.1,37.8a12.89,12.89,0,0,1-11,.8s-4.8-48-4.9-53.7c-.1-6.5,3.2-73.2,3.2-73.2Z" transform="translate(-7 -16)"/><path class="cls-14" d="M382.8,205.3c6.1-20.4,4.9-37.6,6.1-42.9l-15.7,21.9a195.56,195.56,0,0,1-3.2,21.5c-1.8,7.8-4.3,17.5-7.2,23.5a4.35,4.35,0,0,1-2.5,2.3c-3,1.2-4.3,2.7-6.7,4.5-1.9,1.4-3.3,1.6-3.2,2.1a2.61,2.61,0,0,0,3.1,1.7,19.85,19.85,0,0,0,4.1-1.4,22.23,22.23,0,0,1-5,6c-4.5,3.9-5.2,6.7,2.4,8.1,4.7.9,9-1.4,14.4-11.2a94.66,94.66,0,0,0,5.4-11.1C378.2,220.4,380.9,211.5,382.8,205.3Z" transform="translate(-7 -16)"/><path class="cls-2" d="M390.1,157.3c-4.9.9-9.7,2-12.7,6.7s-7.3,26.8-7.3,26.8,6.3,4.4,13.5,4.2Z" transform="translate(-7 -16)"/><path class="cls-15" d="M423.7,165.5c3.3,2.3,20.5,41.3,21.2,44,.9,3.7.5,7.8-1.3,9.2s-5.8-.6-7.9-2.6c-4-4-18-33.1-18-33.1Z" transform="translate(-7 -16)"/><path class="cls-16" d="M406.7,157.3c8,1.9,18,5.1,21.6,12.4s9,19.2,9,19.2a32.2,32.2,0,0,1-13.2,7.8l-4-7,.6,36.9c-6.5,4.7-30.1,7.3-43.7-2.7,0,0,1.7-44.4,1.7-51.3s3.8-15.2,14.4-15.8Z" transform="translate(-7 -16)"/><path class="cls-2" d="M420,189.7s-4-6.9-4.9-8.6l5,17Z" transform="translate(-7 -16)"/><path class="cls-5" d="M413.6,356.6v-1.4c-.9.4-3,8.5-6.8,11.9-3,2.7-7.1,5.9-8.1,8.9s5.7,4.9,8.5,4.4c3.3-.6,8.9-2.9,10.3-5s2.1-5.3,3.2-6.8,3.8-3.3,4.4-5.1c.3-1-.1-3.1-.5-5s-.9-3.5-1.5-3.4v1a7.51,7.51,0,0,1-4.8,1.6C416.9,358,413.6,357.7,413.6,356.6Z" transform="translate(-7 -16)"/><path class="cls-5" d="M380.5,341.6c-.5,0-.9.7-2,1.9a20.41,20.41,0,0,1-5.6,4c-3.6,1.8-10.5,4.5-13.6,5.9-2,.9-1.9,3.2.2,4.6s6.9,2.3,12.8,1c3.2-.7,7.4-3.7,10-3.5s7.5.1,9.5-1.2,1.2-4.2.6-6.6c-.6-2.7-1.4-6.9-2.2-6.7v.9c-1.1,1.7-7,2.4-9.5,1.2Z" transform="translate(-7 -16)"/><path class="cls-10" d="M398.8,247.5a34.31,34.31,0,0,1-13.2-7.6s2.6,4.8,10.1,9.2l-1.6,33.5Z" transform="translate(-7 -16)"/><path class="cls-5" d="M409.7,122a4.47,4.47,0,0,1,3.9,1.4c1.7,1.7,1.3,4.9,0,12.2l-5.2.6Z" transform="translate(-7 -16)"/><path class="cls-5" d="M379.4,119.9a7.84,7.84,0,0,1-3.3-.7c-1.6-.9-2,.9-1.1,2.5a7.34,7.34,0,0,0,6,4c0-.2,1.5-4,1.5-4Z" transform="translate(-7 -16)"/><path class="cls-14" d="M407.2,136.1c.8.5,1.9-1,2.8-2s4-2.4,5.6.9-2,7.7-4.1,9.2c-2.5,1.7-4.3.4-4.3.4l-.5,12.7s-2.8,6.7-10.2,7.8-5.9-5.1-3.5-8.1v-4.6s-3.9.8-5.7.3a8.1,8.1,0,0,1-5.5-5.7,44.83,44.83,0,0,1-1.3-20.9c1.9-11.5,14.9-11.7,22.2-7.1S407.2,136.1,407.2,136.1Z" transform="translate(-7 -16)"/><path class="cls-5" d="M407.2,137.4c.4,0,1.9-2.4,2.8-3.3,1.3-1.2-.4-12.2-.4-12.2s1.4-4.2-1.3-6.9-7.7-2.3-11.4-2.4a33.65,33.65,0,0,1-13.3-2.7c-5.3-2.3-5.7-2.6-6.3-.3s-.9,7.6,2.3,11.2l2.6,1s1.4,1.3,6.4,1.8a68.72,68.72,0,0,0,13.6-.3c1.4-.2,1.7,1.2,2.5,5C405.4,131.8,405.9,137.4,407.2,137.4Z" transform="translate(-7 -16)"/><path class="cls-5" d="M409.6,122.8l4.7-2.5a2.52,2.52,0,0,0-3.4-1.2h-.1A2.94,2.94,0,0,0,409.6,122.8Z" transform="translate(-7 -16)"/><path class="cls-15" d="M393,152.3s6.9-1.4,9.3-2.7a7.52,7.52,0,0,0,3.3-3.3,11.78,11.78,0,0,1-1.9,3.9c-1.8,2.3-10.8,3.9-10.8,3.9v-1.8Z" transform="translate(-7 -16)"/><path class="cls-5" d="M394.6,134.2a1.35,1.35,0,0,0,2.7-.1,1.35,1.35,0,0,0-1.4-1.3,1.42,1.42,0,0,0-1.3,1.4Z" transform="translate(-7 -16)"/><path class="cls-5" d="M396.4,128.4l3,1.6a1.92,1.92,0,0,0-.7-2.4,1.66,1.66,0,0,0-2.3.6Z" transform="translate(-7 -16)"/><path class="cls-15" d="M394.8,143.8l-3.2,1.2a1.65,1.65,0,0,0,2.1,1.1h.1A2,2,0,0,0,394.8,143.8Z" transform="translate(-7 -16)"/><path class="cls-5" d="M381.7,130.4l2.7-2.1a1.7,1.7,0,0,0-2.3-.4l-.1.1A1.74,1.74,0,0,0,381.7,130.4Z" transform="translate(-7 -16)"/><path class="cls-5" d="M383.2,133.8a1.35,1.35,0,1,0,1.3-1.4A1.35,1.35,0,0,0,383.2,133.8Z" transform="translate(-7 -16)"/><polygon class="cls-15" points="383.8 116.7 383.3 125 379 123.6 383.8 116.7"/><path class="cls-4" d="M428.8,233.3a.47.47,0,0,1-.5-.5V75.5a.5.5,0,0,1,1,0V232.8A.47.47,0,0,1,428.8,233.3Z" transform="translate(-7 -16)"/><path class="cls-11" d="M425,89.2h0c0-1.6,3.3-6,4-6s3.6,4.3,3.6,6h0a2.09,2.09,0,0,1-1.1,1.6,5.74,5.74,0,0,1-5.4,0A2.09,2.09,0,0,1,425,89.2Z" transform="translate(-7 -16)"/><path class="cls-12" d="M425,89.2h0c0-1.6,3.3-6,4-6s3.6,4.3,3.6,6h0a2.09,2.09,0,0,1-1.1,1.6,5.74,5.74,0,0,1-5.4,0A2.09,2.09,0,0,1,425,89.2Z" transform="translate(-7 -16)"/><path class="cls-6" d="M406.7,54.3c0,12.3,9.6,27.8,22.3,30.8,12.7-3.6,22.3-18.5,22.3-30.8S443.4,30.5,429,30.5,406.7,42,406.7,54.3Z" transform="translate(-7 -16)"/><path class="cls-13" d="M450.3,60.7S447,72.5,432.4,73.5c-14.1.9-25.5-14.5-25.1-24.8a26,26,0,0,0-.6,5.6c0,12.3,9.6,27.8,22.3,30.8,10.5-2.9,18.9-13.7,21.5-24.3Z" transform="translate(-7 -16)"/><path class="cls-14" d="M443,218.9c2.7-.8,5.4-8.7,5.2-13.8s-7.1-27.1-8-31.4c-1.1-4.7-1-8.2-2-10.7-1.4-3.6-6-5.6-6-5.6s-6-2.9-8.2-3.3-3,1-2.8,2.1,1,4,1.2,5.6a13,13,0,0,0,1.7,5.7c1.1,1.8,5.7,6.1,5.9,8.6s1.5,15.5,2.3,25c.6,7.8,1.4,11,3.1,13.1S441,219.5,443,218.9Z" transform="translate(-7 -16)"/></g><g id="freepik--characters-with-banner--inject-1--inject-2"><ellipse id="freepik--shadow--inject-1--inject-2-3" data-name="freepik--shadow--inject-1--inject-2" class="cls-2" cx="177.8" cy="324.6" rx="51.1" ry="24.4"/><ellipse id="freepik--shadow--inject-1--inject-2-4" data-name="freepik--shadow--inject-1--inject-2" class="cls-2" cx="286.4" cy="332" rx="51.1" ry="24.4"/><path class="cls-14" d="M197.6,139.7c2.6-.4,4.9,0,9.5,6.3,4.1,5.7,12.4,15.2,12.4,15.2s7.5-19.6,7.2-22.2-1.9-4.3-2.9-9.1-1.4-5.8-2.2-7.2,2-1.8,3.1,0,1.3,4.2,2.1,3.8,1.3-5.8.7-9.6,1.1-4.7,1.9-3.5a4.65,4.65,0,0,1,.9,2.3,4.71,4.71,0,0,1,4.5,1.5c2,2.2,3.7,5.5,3.6,11.2s-2.6,8.7-3,11.3-5,26.3-8.3,34.3c-2.1,5-4.9,6.5-8.4,3.6-4.7-3.9-17.6-19.8-17.6-19.8Z" transform="translate(-7 -16)"/><path class="cls-6" d="M197.6,139.7c2.4-.7,5-.1,7.4,2.8s11.3,14.1,11.3,14.1-.3,5.7-7.7,11.1l-8.4-9.1Z" transform="translate(-7 -16)"/><path class="cls-5" d="M210.1,324.9l-.1-1.3c.6,1.5,3.5,8.1,7.4,11.3,3.1,2.5,7.3,5.4,8.5,8.3s-5.3,4.5-8.1,4.2c-3.2-.4-7.5-1.9-9.9-4.6-1.7-1.9-2.8-4.1-4.1-5.5s-3.9-3-4.6-4.8c-.4-1-.1-3.1.2-4.9s.9-3.7,1.5-3.6c0,.4-.1.8-.1,1.2a7.44,7.44,0,0,0,4.8,1.3C206.9,326.4,210.2,325.9,210.1,324.9Z" transform="translate(-7 -16)"/><path class="cls-14" d="M220.3,337c-1-.8-1.9-1.5-2.8-2.2-2.7-2.2-4.9-6.1-6.2-8.8h0a14.91,14.91,0,0,1-1.3-6.9l.1-3.1-10,.2.7,8.9h0v.2h.1c.6,1.9,5.2,6.8,7.8,10,1.8,2.1,5,4.8,8.8,5.1C221,340.8,222.7,339.5,220.3,337Z" transform="translate(-7 -16)"/><path class="cls-5" d="M154.3,326c-.5-.3-1.3,1.4-2.1,2.6a9,9,0,0,0-1.2,5.1,20.19,20.19,0,0,1-.3,6c-.6,3.3-1.5,7.1,1.8,10.2,2.9,2.6,9.3,3.8,11.3,2a3.72,3.72,0,0,0,1.3-2.8,21.74,21.74,0,0,0-1.7-4.2,46.87,46.87,0,0,1-2.1-4.6Z" transform="translate(-7 -16)"/><path class="cls-14" d="M163.3,320.4c-.4-.4-1.4,11.9-1.7,14.8s.2,4.5.7,7.6a3.33,3.33,0,0,1-.1,2.2,2.51,2.51,0,0,1-2.1,1c-2.1,0-3.8-.8-5.6-2.8-.9-1-.9-3.6-.9-4.6a38.46,38.46,0,0,0,.1-4.8c-.2-1.7-.7-3.7-.4-5a9.38,9.38,0,0,1,1-2.8,38.87,38.87,0,0,0,1.4-6.9Z" transform="translate(-7 -16)"/><path class="cls-4" d="M167.5,190.2c-5.2,6.7-6.1,13.6-5,33s-.5,35.3-.8,36.4-3.6,11.8-5.1,19.1c-1.8,8.5-2.1,43.3-2.1,43.3s3.7,2,9.4.6c0,0,13.8-54.5,15.2-58.9S191.6,214,191.6,214l-1.4-26.1Z" transform="translate(-7 -16)"/><path class="cls-4" d="M207.2,212.6c-.8-9-2.7-24.6-2.7-24.6l-23-1.4c-3.7,5.8-2.1,15.5-1.1,24.2l13.2,51.5c-.3,2.5-2.5,7.7,0,21,2.8,14.8,6.3,34.4,6.3,34.4s5.4,2.2,10.4.1c0,0,1.9-46.9.7-59.7C209.6,244.3,207.8,218.8,207.2,212.6Z" transform="translate(-7 -16)"/><path class="cls-5" d="M187.6,234.5l3.8-18.9a41.69,41.69,0,0,0,9.4-4.8,31.91,31.91,0,0,1-6.6,6.1Z" transform="translate(-7 -16)"/><path class="cls-14" d="M168.9,144.4c-2.6,1.5-6.9,2.9-8.6,7.9-2.4,7-8.9,25.2-11.4,31.7h11.9l8.3-16.9C175.5,161.6,174.6,146.4,168.9,144.4Z" transform="translate(-7 -16)"/><path class="cls-1" d="M203,173.4c.6,5.3,2.7,24.7,2.7,24.7-17.4,9.3-38.9,3.1-42.1-.7,3-9.8,6.2-15.4,8.6-18l-3.1-12.3s7.3-8.6-.2-22.7l9.7-3.2,13.2-1.1,5.8-.4c2.1,1.9,5.3,8.9,7.4,14.3C206.4,157.5,207.9,163.1,203,173.4Z" transform="translate(-7 -16)"/><path class="cls-6" d="M168.9,144.4c-5.7,1.1-8.3,3.9-10.5,10.1-2.5,6.7-5.4,14-5.4,14a14.73,14.73,0,0,0,14.6,6.1l3.7-10.3S176.2,155.2,168.9,144.4Z" transform="translate(-7 -16)"/><path class="cls-17" d="M170.7,173.3c.1.6,4.2,6,6.2,7.2s-3.5,3-4.3,6.1c-1.6,6.3,8.2,14.5,20.4,15.6-13.8,2.3-26.9-2-29.4-4.9,3-9.8,6.2-15.4,8.6-18Z" transform="translate(-7 -16)"/><path class="cls-5" d="M207.1,138.5H188.6a22.68,22.68,0,0,1-22.7-22.7h0a20.57,20.57,0,0,1,20.6-20.6h0a20.57,20.57,0,0,1,20.6,20.6h0Z" transform="translate(-7 -16)"/><path class="cls-14" d="M199.8,104.2c2.2,1.3,4.9,6.8,4.6,18.2-.2,9.7-3.4,12.1-5,12.8s-4.6.3-7.6-.2v5.8a4.69,4.69,0,0,1-1.9,3.1c-2.4,1.5-5.3.9-6.9.4-3.6-1.3-4.3-3-4.3-3l.1-13.4s-1.7,1.7-4.7-.9c-2.4-2.1-3.3-5.7-1.4-7.7a4.26,4.26,0,0,1,6,.2,4.44,4.44,0,0,1,.8,1.1s1.7.1,3.5-3.1c0,0-.1-8.8,1.9-9.9C191.2,104,195.6,104.2,199.8,104.2Z" transform="translate(-7 -16)"/><path class="cls-5" d="M191.8,119.3a1.16,1.16,0,0,1-1.1,1.3h0a1.26,1.26,0,0,1-.3-2.5,1.27,1.27,0,0,1,1.4,1.2Z" transform="translate(-7 -16)"/><g class="cls-18"><path class="cls-15" d="M193.9,128.2l2.8.9a1.43,1.43,0,0,1-1.8,1h-.1A1.53,1.53,0,0,1,193.9,128.2Z" transform="translate(-7 -16)"/></g><path class="cls-5" d="M202.9,115.5l-2.5-1.7a1.46,1.46,0,0,1,2-.5.1.1,0,0,1,.1.1A1.69,1.69,0,0,1,202.9,115.5Z" transform="translate(-7 -16)"/><path class="cls-5" d="M190.1,115l-2.8,1.1a1.47,1.47,0,0,1,.7-1.9h.1A1.51,1.51,0,0,1,190.1,115Z" transform="translate(-7 -16)"/><path class="cls-5" d="M202.2,119.1a1.2,1.2,0,1,1-1.2-1.2A1.16,1.16,0,0,1,202.2,119.1Z" transform="translate(-7 -16)"/><g class="cls-18"><polygon class="cls-15" points="189.3 102.4 189.5 109.7 193.4 108.5 189.3 102.4"/></g><g class="cls-18"><path class="cls-15" d="M191.8,135c-3.1-.4-9.6-2.3-10.6-4.8a6.87,6.87,0,0,0,2.3,3.3c1.9,1.6,8.3,3.5,8.3,3.5Z" transform="translate(-7 -16)"/></g><path class="cls-5" d="M183.6,96.3l-.5-5.4a2.68,2.68,0,0,1,3,2.2v.2A2.85,2.85,0,0,1,183.6,96.3Z" transform="translate(-7 -16)"/><path class="cls-5" d="M183.3,96.8l-4.4-3.2a2.61,2.61,0,0,1,3.6-.8.1.1,0,0,1,.1.1A2.88,2.88,0,0,1,183.3,96.8Z" transform="translate(-7 -16)"/><path class="cls-5" d="M179.6,120.6v5.1h0a3.54,3.54,0,0,0,3.5-3.5v-4.7Z" transform="translate(-7 -16)"/><path class="cls-5" d="M193.5,96.4h0a17.24,17.24,0,0,1,17.3,17.3v2.2h-8.5a7.87,7.87,0,0,1-7.8-6.8h0l-.3,6.8h0a6.21,6.21,0,0,1-6.2-5.7l-.1-1.1h0a7.34,7.34,0,0,1-7.4,6.8h-.8l-.9-12.2Z" transform="translate(-7 -16)"/><path class="cls-5" d="M311.1,338.3V337c-.5,1.6-3,8.3-6.7,11.7-3,2.7-7,5.8-8,8.8s5.6,4.2,8.4,3.7c3.2-.6,7.4-2.4,9.6-5.1,1.6-2,2.6-4.3,3.7-5.8s3.7-3.3,4.4-5c.3-1-.1-3.1-.5-4.9s-.9-3.5-1.5-3.3v1a7.24,7.24,0,0,1-4.7,1.6C314.4,339.6,311.1,339.4,311.1,338.3Z" transform="translate(-7 -16)"/><path class="cls-3" d="M301.8,351.1l2.7-2.4c2.6-2.4,4.6-6.4,5.7-9.1a13.83,13.83,0,0,0,1-4.9v-5.3h9.4v8.7h0v.2h0c-.5,1.9-4.7,7.1-7.2,10.5-1.6,2.3-4.7,5.1-8.5,5.6C301.3,354.8,299.5,353.7,301.8,351.1Z" transform="translate(-7 -16)"/><path class="cls-5" d="M274.6,329.1v-1.3c-.5,1.6-3,8.3-6.7,11.7-3,2.7-7,5.8-8,8.8s5.6,4.2,8.4,3.7c3.2-.6,7.3-2.4,9.6-5.1,1.6-2,2.6-4.3,3.7-5.8s3.7-3.3,4.4-5c.3-1-.1-3.1-.5-4.9-.4-1.6-.9-3.5-1.5-3.3v1a7.24,7.24,0,0,1-4.7,1.6C277.9,330.4,274.6,330.1,274.6,329.1Z" transform="translate(-7 -16)"/><path class="cls-3" d="M265.3,341.8l2.7-2.4c2.6-2.4,4.6-6.4,5.7-9.1a11.94,11.94,0,0,0,1-4.9v-5.3H284v8.7h0v.2h0c-.5,1.9-4.7,7.1-7.2,10.5-1.6,2.3-4.7,5.1-8.5,5.6C264.8,345.6,263,344.5,265.3,341.8Z" transform="translate(-7 -16)"/><path class="cls-4" d="M318.6,193c7.3,15.8-.3,71.6-.3,71.6.2,2.6,3.1,7.6,4.3,18.9,1.3,13.4-2,46.9-2,46.9a10.29,10.29,0,0,1-9.5.4s-8.9-50.6-10.6-63.9c-1.5-11.6-4.3-37.1-4.3-37.1l-8,37a63.68,63.68,0,0,1,2.5,11.5c.8,7.8-6.8,44.2-6.8,44.2s-3.2,1.2-9.4.3c0,0-2.7-48.3-3.4-57.7-1.2-15.8,3-65.2,5.9-74.5Z" transform="translate(-7 -16)"/><path class="cls-5" d="M296.3,229.9l-2.4-14.7s-10-2.1-14.5-6.3c0,0,4.7,5.9,11.8,7.8l2.6,11.3-4.6,34.3Z" transform="translate(-7 -16)"/><path class="cls-3" d="M291.4,137.5a12.46,12.46,0,0,0-12,4.9c-3.1,4.2-15.3,39.4-15.3,39.4H275l14.9-29.5Z" transform="translate(-7 -16)"/><path class="cls-1" d="M305.8,137.9h0c9.3.6,10,5.1,12.3,10a15.61,15.61,0,0,1,.4,12L312,178.6s3,7.3,6.5,14.3c-16.3,9.1-36.6,4.3-41.5-2.3-.2-1.4,1-12.4,1.8-19.6-2.9-7.2-3.6-11.7-2.4-16.5,2.2-8.8,10.9-17.4,14.8-17.1Z" transform="translate(-7 -16)"/><path class="cls-17" d="M301.7,194.7a9.86,9.86,0,0,0,7.4-11.8c0-.1,0-.2-.1-.2,0-.2-.1-.3-.2-.5a3.25,3.25,0,0,0-3.3-2.2h0a9.64,9.64,0,0,0,4.1-6.1l2-9.9s-3.7-11.6-3.3-15.6l9.3.5,1.2.8a15.87,15.87,0,0,1-.3,10.1L312,178.5s3,7.3,6.5,14.3a41.74,41.74,0,0,1-34.7,2.3A44.94,44.94,0,0,0,301.7,194.7Z" transform="translate(-7 -16)"/><path class="cls-3" d="M340,184.4s-9.2-18.2-15.3-32.1c-4.4-10-5.4-12.3-12.4-13.4l-2.5-.4c-3.3,10.9-1,15.9,3.3,23.3l15.2,28.8C331.8,190,340.1,185.4,340,184.4Z" transform="translate(-7 -16)"/><path class="cls-5" d="M302,130.2h-6.6a17.46,17.46,0,0,1-17.5-17.5v-2.9a17.63,17.63,0,0,1,17.6-17.6h6.3a17.63,17.63,0,0,1,17.6,17.6h0v2.9A17.43,17.43,0,0,1,302,130.2Z" transform="translate(-7 -16)"/><path class="cls-3" d="M284.7,100.5c-2.2,1.3-4.9,6.8-4.6,18.4.2,9.8,3.4,12.2,5,12.9s4.7.3,7.7-.2v5.9s-4.1,4.8-3.9,7.5,6,3.3,9.9.7a25.51,25.51,0,0,0,6.4-6.7V124.8s2,2.7,5.3.5,3.4-7.6,1.5-9.6-6.1-1.3-6.9,1.4c0,0-4.8.2-11.1-3.3A17.73,17.73,0,0,1,284.7,100.5Z" transform="translate(-7 -16)"/><path class="cls-5" d="M292.1,116.5a1.3,1.3,0,0,0,1.2,1.3,1.23,1.23,0,0,0,1.3-1.2,1.3,1.3,0,0,0-1.2-1.3,1.23,1.23,0,0,0-1.3,1.2Z" transform="translate(-7 -16)"/><path class="cls-8" d="M290.7,124.8l-2.9.9a1.43,1.43,0,0,0,1.8,1h0A1.52,1.52,0,0,0,290.7,124.8Z" transform="translate(-7 -16)"/><path class="cls-5" d="M282,112.7l2.5-1.7a1.46,1.46,0,0,0-2-.5h-.1A1.6,1.6,0,0,0,282,112.7Z" transform="translate(-7 -16)"/><path class="cls-5" d="M282.6,115.6a1.2,1.2,0,1,0,1.2-1.2A1.22,1.22,0,0,0,282.6,115.6Z" transform="translate(-7 -16)"/><polygon class="cls-8" points="281.6 98.9 281.4 106.3 277.5 105.1 281.6 98.9"/><path class="cls-8" d="M292.8,131.7c3.1-.4,9.6-2.3,10.7-4.8a6.87,6.87,0,0,1-2.3,3.3c-1.9,1.7-8.4,3.5-8.4,3.5v-2Z" transform="translate(-7 -16)"/><path class="cls-5" d="M316.9,94.4c-4.1,1.7-3.1,5.2-1.5,9.2s3.6,7.2,7.6,5.4a8,8,0,1,0-4.6-15.4,10.93,10.93,0,0,0-1.5.8Z" transform="translate(-7 -16)"/><path class="cls-5" d="M313.3,98l-1.4-6.8a3.34,3.34,0,0,1,4.1,2.4v.1A3.64,3.64,0,0,1,313.3,98Z" transform="translate(-7 -16)"/><rect class="cls-6" x="127.7" y="165.9" width="211.9" height="50.7"/><path class="cls-14" d="M134.7,190.6c-.6,1.7-2,2.6-3,4.3s-1.4,6.9-.3,9a10.85,10.85,0,0,0,8.4,5.4,6.69,6.69,0,0,0,4.1-1.1,5,5,0,0,0,1.5-1.4,4.55,4.55,0,0,0,.8-1.9c0-.1,0-.1.1-.1s.1-.1.2-.1a2.57,2.57,0,0,0,1.2-.5,1.66,1.66,0,0,0,.5-1.2,1.94,1.94,0,0,0-.9-1.4,4.42,4.42,0,0,0-1.6-.6c-1.3-.4-2.6-1.1-3.9-1.6a19.91,19.91,0,0,1-7.1-4.3Z" transform="translate(-7 -16)"/><path class="cls-3" d="M346.7,192.2c.6,1.8,2,2.6,3,4.3s1.4,7,.3,9.1a10.78,10.78,0,0,1-8.5,5.4,6.41,6.41,0,0,1-6.5-4.2c-.9-3.1.7-4.3,4.4-5.8a19.2,19.2,0,0,0,7.2-4.4Z" transform="translate(-7 -16)"/><path class="cls-3" d="M254,177.7c5.6.9,7.2,4.2,7.2,4.2h-4.6s-.6,1.5,1,7.3c.5,2-2.4,2.1-2.5,1.3-.5,1.2-4.5,3-7.4,1-2.7-1.8-3.9-4.5-3.3-9.7C245.4,176.1,253,177.5,254,177.7Z" transform="translate(-7 -16)"/></g></g><g id="Layer_2" data-name="Layer 2"><text class="cls-19" transform="translate(149 201)">Bienvenue</text></g><path class="cls-20" d="M230.61,120.5a5.15,5.15,0,0,1,1.46.21l-.47,2.88a4.35,4.35,0,0,0-4.23,1.35,7.92,7.92,0,0,0-2.28,5l-2.16-.31a11.2,11.2,0,0,1,3.17-7.09A6.6,6.6,0,0,1,230.61,120.5Z" transform="translate(-7 -16)"/><path class="cls-21" d="M14.68,151.78a5.15,5.15,0,0,1,1.46.21l-.47,2.88a4.32,4.32,0,0,0-4.23,1.35,7.92,7.92,0,0,0-2.28,5L7,160.91a11.27,11.27,0,0,1,3.17-7.09A6.56,6.56,0,0,1,14.68,151.78Z" transform="translate(-7 -16)"/><path class="cls-20" d="M110.25,244.59a8.74,8.74,0,0,1,1,1.48l-1.76,1.72a5.23,5.23,0,0,0-3.81-2.84,4.48,4.48,0,0,0-4.17,1.66l-1.51-2.2a6.26,6.26,0,0,1,5.85-2.38A6.91,6.91,0,0,1,110.25,244.59Z" transform="translate(-7 -16)"/><polygon class="cls-21" points="217.06 192.72 212.9 199.81 211.2 197.97 215.36 190.89 217.06 192.72"/><polygon class="cls-21" points="102.75 169.08 98.59 176.16 96.89 174.32 101.05 167.24 102.75 169.08"/><polygon class="cls-22" points="35.14 77.04 30.98 84.12 29.28 82.29 33.44 75.2 35.14 77.04"/><polygon class="cls-22" points="337.78 46.54 333.62 53.62 331.92 51.78 336.08 44.7 337.78 46.54"/><path class="cls-22" d="M293.73,141.51a21.41,21.41,0,0,1,4.14,8.58l-2.07.9c-1.22-5.14-4.35-9.3-8.17-10.85l.63-2.82A14.07,14.07,0,0,1,293.73,141.51Z" transform="translate(-7 -16)"/><path class="cls-22" d="M193.16,251.23a21.37,21.37,0,0,1,4.14,8.57l-2.07.91c-1.22-5.14-4.35-9.3-8.17-10.85l.63-2.82A14.07,14.07,0,0,1,193.16,251.23Z" transform="translate(-7 -16)"/><polygon class="cls-23" points="134.57 60.77 133.48 65.71 121.88 61.01 122.97 56.07 134.57 60.77"/><path class="cls-22" d="M122.36,99.44l-.18,1.46a29.28,29.28,0,0,0-17.94,1.61l-.32-1.41A30.21,30.21,0,0,1,122.36,99.44Z" transform="translate(-7 -16)"/><path class="cls-22" d="M441.6,133.24l-1.06.29A63.51,63.51,0,0,0,433,111.4l.85-.91A65,65,0,0,1,441.6,133.24Z" transform="translate(-7 -16)"/><polygon class="cls-22" points="425.31 22.39 425.76 23.74 411.14 32.69 410.7 31.35 425.31 22.39"/><polygon class="cls-21" points="349.33 186.86 350.39 187.15 347.21 208.46 346.14 208.16 349.33 186.86"/><path class="cls-20" d="M491.1,231.15a19.76,19.76,0,0,1,4,8.58l-2.1.79c-1-5.09-4.13-9.22-7.9-10.54l.55-2.86A12.76,12.76,0,0,1,491.1,231.15Z" transform="translate(-7 -16)"/><path class="cls-20" d="M259.73,27.91a19.76,19.76,0,0,1,4,8.58l-2.1.79c-1-5.09-4.13-9.22-7.9-10.55l.55-2.85A12.76,12.76,0,0,1,259.73,27.91Z" transform="translate(-7 -16)"/><polygon class="cls-22" points="28.84 271.06 29.47 272.26 24.01 277.53 23.38 276.33 28.84 271.06"/><polygon class="cls-20" points="168.49 98.09 172.03 107.89 171.05 108.54 167.51 98.74 168.49 98.09"/><polygon class="cls-23" points="341.78 260.98 342.1 262.39 331.41 266.86 331.09 265.45 341.78 260.98"/><path class="cls-23" d="M167.41,190.48a13.43,13.43,0,0,1,2.84,6.65l-3.74.94c-.48-3.49-3.28-6.2-5.88-5.67l-.56-5.1C162.72,186.76,165.43,188.08,167.41,190.48Z" transform="translate(-7 -16)"/><polygon class="cls-22" points="97.67 0 99.07 4.8 89.47 9.94 88.07 5.14 97.67 0"/><polygon class="cls-23" points="337.5 140.82 336.41 145.77 324.81 141.07 325.89 136.13 337.5 140.82"/></svg>