<svg id="Layer_1" data-name="Layer 1" xmlns="http://www.w3.org/2000/svg" xmlns:xlink="http://www.w3.org/1999/xlink" viewBox="0 0 220 220"><defs><style>.cls-1{fill:url(#linear-gradient);}.cls-2{fill:url(#linear-gradient-2);}.cls-3{fill:#ccbed3;}</style><linearGradient id="linear-gradient" x1="41.01" y1="135.13" x2="43.04" y2="-32.39" gradientTransform="matrix(1, 0, 0, -1, 0, 222)" gradientUnits="userSpaceOnUse"><stop offset="0.23" stop-color="#3a1e4f"/><stop offset="0.4" stop-color="#511675"/><stop offset="0.72" stop-color="#7b06b9"/><stop offset="0.87" stop-color="#8c00d4"/></linearGradient><linearGradient id="linear-gradient-2" x1="282.4" y1="100.92" x2="440.11" y2="-30.82" gradientTransform="matrix(1, 0, 0, -1, -249.39, 130.87)" gradientUnits="userSpaceOnUse"><stop offset="0.1" stop-color="#8c00d4"/><stop offset="0.53" stop-color="#660e97"/><stop offset="1" stop-color="#3a1e4f"/></linearGradient></defs><title>ICON</title><path id="_" data-name=" " class="cls-1" d="M23.34,94h37V188.4a25.48,25.48,0,0,1-25.48,25.48H23.34V94Z"/><g id="o"><path class="cls-2" d="M109.67,7.6a86.38,86.38,0,0,0-7.4,172.45V142.79a49.37,49.37,0,1,1,14.8,0v37.26A86.38,86.38,0,0,0,109.67,7.6Z"/></g><path id="glass-reflexion" class="cls-3" d="M75.67,90.09h-.24a1.74,1.74,0,0,1-1.48-2A35.25,35.25,0,0,1,91.86,62.24a1.73,1.73,0,1,1,1.66,3h0A31.72,31.72,0,0,0,77.4,88.62,1.74,1.74,0,0,1,75.67,90.09Z"/></svg>