<svg id="Layer_1" data-name="Layer 1" xmlns="http://www.w3.org/2000/svg" xmlns:xlink="http://www.w3.org/1999/xlink" viewBox="0 0 1052.46 207.07"><defs><style>.cls-1{fill:url(#linear-gradient);}.cls-2{fill:url(#linear-gradient-2);}.cls-3{fill:#ccbed3;}.cls-4,.cls-5{font-size:177.65px;font-family:CenturyGothic-Bold, Century Gothic;font-weight:700;}.cls-4{fill:#fff;}.cls-5{fill:#8c00d4;}</style><linearGradient id="linear-gradient" x1="27.12" y1="142.99" x2="28.86" y2="-0.53" gradientTransform="matrix(1, 0, 0, -1, 0, 222)" gradientUnits="userSpaceOnUse"><stop offset="0.23" stop-color="#3a1e4f"/><stop offset="0.4" stop-color="#511675"/><stop offset="0.72" stop-color="#7b06b9"/><stop offset="0.87" stop-color="#8c00d4"/></linearGradient><linearGradient id="linear-gradient-2" x1="269.66" y1="100.63" x2="404.79" y2="-12.24" gradientTransform="matrix(1, 0, 0, -1, -249.39, 130.87)" gradientUnits="userSpaceOnUse"><stop offset="0.1" stop-color="#8c00d4"/><stop offset="0.53" stop-color="#660e97"/><stop offset="1" stop-color="#3a1e4f"/></linearGradient></defs><title>Logo cover 2.0-01</title><path id="_" data-name=" " class="cls-1" d="M12,85.11H43.65V166a21.83,21.83,0,0,1-21.83,21.83H12V85.11Z" transform="translate(-11.93 -6.51)"/><g id="o"><path class="cls-2" d="M86,11.09a74,74,0,0,0-6.34,147.76V126.92a42.29,42.29,0,1,1,12.69,0v31.93A74,74,0,0,0,86,11.09Z" transform="translate(-11.93 -6.51)"/></g><path id="glass-reflexion" class="cls-3" d="M56.82,81.76h-.21a1.48,1.48,0,0,1-1.26-1.67A30.17,30.17,0,0,1,70.69,57.91a1.48,1.48,0,0,1,1.43,2.6h0a27.19,27.19,0,0,0-13.82,20A1.48,1.48,0,0,1,56.82,81.76Z" transform="translate(-11.93 -6.51)"/><text class="cls-4" transform="translate(160.39 152.6)">upil</text><text class="cls-5" transform="translate(480.27 152.6)">.Finder</text></svg>